<svg width="1005" height="398" viewBox="0 0 1005 398" fill="none" xmlns="http://www.w3.org/2000/svg">
<g clip-path="url(#clip0)">
<path d="M210.9 119.1C210.9 136.5 204.9 151 192.9 162.6C181.1 174 163 179.7 138.6 179.7H98.4V267H71.1V57.9H138.6C162.2 57.9 180.1 63.6 192.3 75C204.7 86.4 210.9 101.1 210.9 119.1ZM138.6 157.2C153.8 157.2 165 153.9 172.2 147.3C179.4 140.7 183 131.3 183 119.1C183 93.3 168.2 80.4 138.6 80.4H98.4V157.2H138.6ZM393.091 75V50.1H449.491V267H421.891V75H393.091ZM727.146 269.1C713.346 269.1 700.946 266.7 689.946 261.9C679.146 256.9 670.646 250.1 664.446 241.5C658.246 232.7 655.046 222.6 654.846 211.2H683.946C684.946 221 688.946 229.3 695.946 236.1C703.146 242.7 713.546 246 727.146 246C740.146 246 750.346 242.8 757.746 236.4C765.346 229.8 769.146 221.4 769.146 211.2C769.146 203.2 766.946 196.7 762.546 191.7C758.146 186.7 752.646 182.9 746.046 180.3C739.446 177.7 730.546 174.9 719.346 171.9C705.546 168.3 694.446 164.7 686.046 161.1C677.846 157.5 670.746 151.9 664.746 144.3C658.946 136.5 656.046 126.1 656.046 113.1C656.046 101.7 658.946 91.6 664.746 82.8C670.546 74 678.646 67.2 689.046 62.4C699.646 57.6 711.746 55.2 725.346 55.2C744.946 55.2 760.946 60.1 773.346 69.9C785.946 79.7 793.046 92.7 794.646 108.9H764.646C763.646 100.9 759.446 93.9 752.046 87.9C744.646 81.7 734.846 78.6 722.646 78.6C711.246 78.6 701.946 81.6 694.746 87.6C687.546 93.4 683.946 101.6 683.946 112.2C683.946 119.8 686.046 126 690.246 130.8C694.646 135.6 699.946 139.3 706.146 141.9C712.546 144.3 721.446 147.1 732.846 150.3C746.646 154.1 757.746 157.9 766.146 161.7C774.546 165.3 781.746 171 787.746 178.8C793.746 186.4 796.746 196.8 796.746 210C796.746 220.2 794.046 229.8 788.646 238.8C783.246 247.8 775.246 255.1 764.646 260.7C754.046 266.3 741.546 269.1 727.146 269.1Z" fill="#020278"/>
<path d="M35.7944 231.364C35.7944 205.758 64.3718 185 99.6238 185H998.617C1002.14 185 1005 187.076 1005 189.636C1005 215.242 976.422 236 941.17 236H42.1773C38.6522 236 35.7944 233.924 35.7944 231.364Z" fill="white"/>
<path d="M297.361 295.1C283.561 295.1 271.161 292.7 260.161 287.9C249.361 282.9 240.861 276.1 234.661 267.5C228.461 258.7 225.261 248.6 225.061 237.2H254.161C255.161 247 259.161 255.3 266.161 262.1C273.361 268.7 283.761 272 297.361 272C310.361 272 320.561 268.8 327.961 262.4C335.561 255.8 339.361 247.4 339.361 237.2C339.361 229.2 337.161 222.7 332.761 217.7C328.361 212.7 322.861 208.9 316.261 206.3C309.661 203.7 300.761 200.9 289.561 197.9C275.761 194.3 264.661 190.7 256.261 187.1C248.061 183.5 240.961 177.9 234.961 170.3C229.161 162.5 226.261 152.1 226.261 139.1C226.261 127.7 229.161 117.6 234.961 108.8C240.761 100 248.861 93.2 259.261 88.4C269.861 83.6 281.961 81.2 295.561 81.2C315.161 81.2 331.161 86.1 343.561 95.9C356.161 105.7 363.261 118.7 364.861 134.9H334.861C333.861 126.9 329.661 119.9 322.261 113.9C314.861 107.7 305.061 104.6 292.861 104.6C281.461 104.6 272.161 107.6 264.961 113.6C257.761 119.4 254.161 127.6 254.161 138.2C254.161 145.8 256.261 152 260.461 156.8C264.861 161.6 270.161 165.3 276.361 167.9C282.761 170.3 291.661 173.1 303.061 176.3C316.861 180.1 327.961 183.9 336.361 187.7C344.761 191.3 351.961 197 357.961 204.8C363.961 212.4 366.961 222.8 366.961 236C366.961 246.2 364.261 255.8 358.861 264.8C353.461 273.8 345.461 281.1 334.861 286.7C324.261 292.3 311.761 295.1 297.361 295.1ZM482.016 130.7C483.416 112.3 490.516 97.9 503.316 87.5C516.116 77.1 532.716 71.9 553.116 71.9C566.716 71.9 578.416 74.4 588.216 79.4C598.216 84.2 605.716 90.8 610.716 99.2C615.916 107.6 618.516 117.1 618.516 127.7C618.516 140.1 614.916 150.8 607.716 159.8C600.716 168.8 591.516 174.6 580.116 177.2V178.7C593.116 181.9 603.416 188.2 611.016 197.6C618.616 207 622.416 219.3 622.416 234.5C622.416 245.9 619.816 256.2 614.616 265.4C609.416 274.4 601.616 281.5 591.216 286.7C580.816 291.9 568.316 294.5 553.716 294.5C532.516 294.5 515.116 289 501.516 278C487.916 266.8 480.316 251 478.716 230.6H505.116C506.516 242.6 511.416 252.4 519.816 260C528.216 267.6 539.416 271.4 553.416 271.4C567.416 271.4 578.016 267.8 585.216 260.6C592.616 253.2 596.316 243.7 596.316 232.1C596.316 217.1 591.316 206.3 581.316 199.7C571.316 193.1 556.216 189.8 536.016 189.8H529.116V167H536.316C554.716 166.8 568.616 163.8 578.016 158C587.416 152 592.116 142.8 592.116 130.4C592.116 119.8 588.616 111.3 581.616 104.9C574.816 98.5 565.016 95.3 552.216 95.3C539.816 95.3 529.816 98.5 522.216 104.9C514.616 111.3 510.116 119.9 508.716 130.7H482.016ZM851.037 83.9V293H823.737V83.9H851.037Z" fill="#0808C4"/>
</g>
<defs>
<clipPath id="clip0">
<rect width="1005" height="398" fill="white"/>
</clipPath>
</defs>
</svg>
